<?xml version="1.0" encoding="UTF-8"?> <svg xmlns="http://www.w3.org/2000/svg" viewBox="0 0 686.28 390.58"><defs><style>.cls-1{fill:#d4ecfa;}.cls-2{fill:#0081b0;}.cls-3{fill:#0491ba;}.cls-4,.cls-7{fill:#fff;}.cls-4{opacity:0.25;}.cls-5{fill:#0280ae;}.cls-6{opacity:0.7;}.cls-8{fill:#c2682d;}.cls-9{fill:#1a2e35;}.cls-10,.cls-19{fill:#ffcb00;}.cls-11{fill:#049fde;}.cls-12{fill:#333;}.cls-13{fill:#11203d;}.cls-14{fill:#efefef;}.cls-15{fill:#01405a;}.cls-16{fill:#fdaf85;}.cls-17{fill:#c1682c;}.cls-18{fill:#133e59;}.cls-19{font-size:13.7px;font-family:Avenir-Black, Avenir;font-weight:800;}</style></defs><g id="Calque_2" data-name="Calque 2"><path class="cls-1" d="M716,450.76H256.73c0-126.81,102.81-229.62,229.63-229.62S716,324,716,450.76Z" transform="translate(-69.99 -106.57)"></path><path class="cls-2" d="M587.34,399s21.5-9.05,14.18-26c0,0-6.24-10.63-13.93-14.15,0,0,1.27,24-3.08,24.05S585,356,585,356s-19.74-13.2-28.12-13.43c0,0,10.14,24.61,5.94,23.51s-15.91-26.19-15.91-26.19-21.08-6.91-26.25,5.91-.41,20.17,2.68,21.41,23.69,3.59,22.8,6.29-15.33,5.33-22.75,1.86c0,0,5.74,22.92,17.09,23.25s15.74-6.41,22.75-6.07,11.83,2.92,8.11,4.41-15.29-1.32-21.52,2.9-11.17,6.67-1,10.22,29,4.55,33.78-3.26l.6-1a4.77,4.77,0,0,1-.6,1c1.77,1.41,4,7.32,5.4,11.82.19.76.51,1.8,1,3.24l.4,1.4c2.54,10-1.55,26.29-1.55,26.29l2.15.9c7-15.91.14-30.61.14-30.61A45.73,45.73,0,0,1,587.34,399Z" transform="translate(-69.99 -106.57)"></path><path class="cls-2" d="M714.52,339.45C712.19,321.38,683,323.2,683,323.2s-23.26,28.12-29,28.13,15.39-28,15.39-28c-10.76-2.49-40.33,7.79-40.33,7.79s-2.81,35.92-8.35,34.47,4.06-31.69,4.06-31.69c-11,1.93-22.45,13.42-22.45,13.42-15,19.19,9.45,37.86,9.45,37.86s-1.23,12.43-10.44,25.69c0,0-13.69,16.46-10,39.1l3-.44s.22-22.18,6.75-34.05c.25-.42.59-1,1-1.66,1.1-1.66,1.85-2.89,2.35-3.79,3.35-5.26,8.09-12.08,10.82-13.29a5.74,5.74,0,0,1-.44-1.44c.14.46.28.94.44,1.44,3.52,11.56,27.91,16.54,42,15.38s8.62-5.93,2.07-13.38-22.26-7.72-26.5-10.85,2.76-4.83,11.81-2.93,12.42,11.95,27,15.3,29.53-24,29.53-24c-10.62,2-28.17-6.2-28.41-9.94s26.81.1,31.17-.45S716.86,357.52,714.52,339.45Z" transform="translate(-69.99 -106.57)"></path><rect class="cls-2" y="340.93" width="686.28" height="49.65" rx="15.19"></rect><circle class="cls-3" cx="209.41" cy="275.36" r="37.95" transform="translate(-184.92 289.11) rotate(-73.1)"></circle><path class="cls-4" d="M194.07,306.56a34.77,34.77,0,1,1,46.54-15.86A34.8,34.8,0,0,1,194.07,306.56Z" transform="translate(-69.99 -106.57)"></path><path class="cls-5" d="M197.58,299.43a26.82,26.82,0,1,1,35.9-12.23A26.85,26.85,0,0,1,197.58,299.43Z" transform="translate(-69.99 -106.57)"></path><g class="cls-6"><rect class="cls-7" x="127.59" y="164.42" width="15.05" height="3.56"></rect><rect class="cls-7" x="127.59" y="170.73" width="15.05" height="3.56"></rect><path class="cls-7" d="M217.28,285.45a8.12,8.12,0,0,1-3.59.72,8.4,8.4,0,0,1-6.67-2.76A10.36,10.36,0,0,1,204.2,276a10.65,10.65,0,0,1,2.82-7.49,8.25,8.25,0,0,1,6.65-2.83,9.21,9.21,0,0,1,3.22.59l1.61-3.52a10.81,10.81,0,0,0-4.55-1,12.46,12.46,0,0,0-10.44,4.85,14.64,14.64,0,0,0-3.35,9.46,14.09,14.09,0,0,0,4,10.11,12.31,12.31,0,0,0,9.48,3.91,13.73,13.73,0,0,0,5.27-1l-.85-4A7.09,7.09,0,0,1,217.28,285.45Z" transform="translate(-69.99 -106.57)"></path></g><rect class="cls-5" x="114.72" y="65.46" width="2.96" height="60.93"></rect><rect class="cls-5" x="137.94" y="7.55" width="2.96" height="118.84"></rect><rect class="cls-5" x="161.16" y="65.46" width="2.96" height="60.93"></rect><path class="cls-8" d="M290.55,327.21a60.75,60.75,0,0,0,.95-8.64L281,310.12c.39,11.62-7,17.2-7,17.2s14,6.88,22,4.33A19.3,19.3,0,0,0,290.55,327.21Z" transform="translate(-69.99 -106.57)"></path><path class="cls-8" d="M294,318.38s-13.33,2.21-14.59-6.11-3.81-13.65,4.65-15.41,10.6,1.16,11.69,3.84S297.41,317.59,294,318.38Z" transform="translate(-69.99 -106.57)"></path><path class="cls-9" d="M279.47,312.84s.27-11.15,12.42-12.94c8.32-1.22,3.28-8.18,2.33-9.28,0,0-6.36,1.22-12.87,2.64C267.68,296.26,278,311.19,279.47,312.84Z" transform="translate(-69.99 -106.57)"></path><path class="cls-10" d="M266.61,400.45c-.05.89,1.79,1.87,2.58,2.23a55.75,55.75,0,0,0,17.88,5.15c7.49.77,16.33-.91,19.36-.87a1.29,1.29,0,0,0,.84-.32c.21-.17.37-9.3.21-20.82,0-.44,0-.93,0-1.38v-.16c0-4.48-.21-9.21-.41-13.9-.15-3.45-.33-6.85-.57-10.07,0-.18,0-.35,0-.53h0a101.48,101.48,0,0,0-2-15.27c0-.2-.1-.41-.16-.61l-.09-.33a28.21,28.21,0,0,0-8.48-13l-2.78-2.47c-.23.05-.47.09-.71.12a13.08,13.08,0,0,1-8-1.17c-3-1.45-6.18-3.22-7.09-3.15a.3.3,0,0,0-.18.05c-4.9,3.66-8,12.75-9.2,24l-.09.86c-.08.78-.15,1.56-.21,2.35l-.08,1.15c-.18,2.63-.26,5.35-.25,8.13,0,2.23.07,4.49.2,6.78a220.2,220.2,0,0,1-.44,29.1C266.73,398.06,266.63,399.48,266.61,400.45Z" transform="translate(-69.99 -106.57)"></path><path class="cls-11" d="M344.24,350.35l1.31-1h0l0,0s0,0,0,0Zm1.33-1.06,4.9-3.89.42-.33v0l0-.1,0,0h0l-.39.31-.28.23-2.83,2.28h0L346,349l-.41.33Zm16.84-13.66a1.19,1.19,0,0,1,.26.05l1.5-1.21-.13-.14Z" transform="translate(-69.99 -106.57)"></path><path class="cls-11" d="M408.3,437c0-.07-.05-.13-.07-.21a1.86,1.86,0,0,0,.09.3S408.3,437,408.3,437Zm51.93,0c0,.06,0,.09,0,.13s0-.18.09-.34C460.28,436.85,460.25,436.91,460.23,437Z" transform="translate(-69.99 -106.57)"></path><path class="cls-11" d="M134.44,437c0-.07-.06-.13-.08-.21a2.32,2.32,0,0,1,.1.34S134.44,437,134.44,437Zm51.95,0c0,.06,0,.09,0,.13a2.32,2.32,0,0,1,.1-.34C186.44,436.85,186.41,436.91,186.39,437Z" transform="translate(-69.99 -106.57)"></path><path class="cls-11" d="M131.47,428.07a29,29,0,0,0,1.45,9.08h1.55a.1.1,0,0,0,0,0s0,0,0-.06l0-.17s0-.07,0-.11-.06-.19-.1-.3a7.32,7.32,0,0,1-.23-.76c-.06-.24-.13-.46-.17-.63a27.44,27.44,0,0,1,26.55-34.49,25.09,25.09,0,0,1,4.18.33h0a27.4,27.4,0,0,1,15.63,8.17h0a27.49,27.49,0,0,1,7.61,19,27.88,27.88,0,0,1-.9,7c0,.16-.11.37-.17.59s-.15.54-.24.8l-.1.3s0,.08,0,.11l-.05.17s0,.05,0,.06a.1.1,0,0,0,0,0h1.54a28.95,28.95,0,1,0-56.43-9.08Zm273.85,0a28.69,28.69,0,0,0,1.46,9.08h1.56l0-.08a1.86,1.86,0,0,1-.09-.3c0-.09-.06-.19-.1-.3-.11-.35-.23-.76-.32-1.1a3,3,0,0,1-.09-.29,27.89,27.89,0,0,1-.91-7A27,27,0,0,1,409,417.3a27.6,27.6,0,0,1,15.66-15,28,28,0,0,1,9.57-1.72,27.46,27.46,0,0,1,25.26,16.71,27,27,0,0,1,2.21,10.77,27.88,27.88,0,0,1-.9,7c-.05.16-.11.37-.17.59s-.17.55-.24.8l-.11.3,0,.11,0,.17a.18.18,0,0,0,0,.06.1.1,0,0,0,0,0h1.55a28.95,28.95,0,1,0-56.43-9.08Z" transform="translate(-69.99 -106.57)"></path><path class="cls-12" d="M342.22,349.18l3.32.13h0l0,0,4.9-3.89,0-.1h0l.63-1.8,2.64-7.49,1.69-4.82a3.26,3.26,0,0,0-6.15-2.17l-4.46,12.72h0Z" transform="translate(-69.99 -106.57)"></path><path class="cls-8" d="M342.74,343.68h2.63s3.44-5,8.3-.72c0,0,1.9,1.94.43,3.06s-1,.42-3.08,2.05-4.54,1.92-6,.58l-2-.57Z" transform="translate(-69.99 -106.57)"></path><path class="cls-10" d="M268.74,360.31c4.32,0,21.62.21,34.65.16h0l5.09-.05h0c4.61-.06,8.15-.16,9.52-.32,7.76-.93,20.89-6.89,25.66-9.14l1.8-.87s0-.28,0-.72c0,0,0,0,0,0V349a11,11,0,0,0-.14-1.26,9.64,9.64,0,0,0-.35-1.38,19.65,19.65,0,0,0-1.22-2.72c-.62-1.15-1.16-1.95-1.16-1.95s-23.61,5.15-25.9,5.38a107.61,107.61,0,0,1-10.82-1.47h0l-2.46-.4c-9.7-1.61-21.1-3.65-21.1-3.65L270.28,357h0l-1.67,2.14Z" transform="translate(-69.99 -106.57)"></path><path class="cls-3" d="M107.87,426.8c.45.91.84,1.39,1.23,2.05a14.14,14.14,0,0,1,1.46,3.21l.24,1.29a3.94,3.94,0,0,0,.67,1.73,4.31,4.31,0,0,0,2.4,1.71c.34.22,14.33.33,19,.36a29,29,0,1,1,56.44-9.08,28.69,28.69,0,0,1-1.46,9.08H406.78a28.95,28.95,0,1,1,55,0h29.42c2.92,0,4.51-.9,5.32-2.07,1.49-2.21.26-5.42.26-5.42a113.59,113.59,0,0,0,.52-12.36,34,34,0,0,0-.52-6.42,0,0,0,0,0,0,0,2.36,2.36,0,0,0-1-1.76,4,4,0,0,1-2.11-3.79,65.28,65.28,0,0,0-.9-16.67c-.3-1.59-.62-3.31-1-5.13a24.58,24.58,0,0,0-2.79-7.45,39.42,39.42,0,0,0-3-4.52,1,1,0,0,0-.14-.15,46.41,46.41,0,0,0-4-4.51,78.14,78.14,0,0,0-22.5-15.25c-8.6-4.15-21.54-8.4-34.52-12.06-22.7-6.52-45.56-11.35-45.56-11.35s-7.86-7.59-9.54-9.54c-6.9-7.88-24.2-24.91-34.64-32.79-1.14-.88-2.17-1.62-3.11-2.23-.46-.3-.88-.56-1.27-.78a8.78,8.78,0,0,0-2.6-1.14c-.64-.13-1.36-.3-2.2-.45-7.62-1.59-25.1-4.8-75.73-5.94-47.71-1.07-97.14,5-109.17,7.14a4.28,4.28,0,0,0-3.45,3.24l-1.74,7c-.1.28-.19.61-.33.91L113.16,338a4.61,4.61,0,0,0-.46,2.15c.23,5.34,1.08,41.06-.06,43.32a5.54,5.54,0,0,1-1.3,1.85,4.28,4.28,0,0,0-1.23,3.09v18.74a4.31,4.31,0,0,1-1.26,3.05,4.5,4.5,0,0,0-1.3,3.08v8.24C107.48,423.92,107.48,426.06,107.87,426.8Zm343.32-68.44a1.29,1.29,0,0,1,.21-.19,7.81,7.81,0,0,1,4.65-1.49c.26,0,.53,0,.79,0a3.9,3.9,0,0,1,.58.05,10.76,10.76,0,0,1,1.1.23h0a2.47,2.47,0,0,1,.46.15l.24.07a3,3,0,0,1,.33.14h0l.36.14.17.06.67.29h0l.29.13.08,0,.1,0,.68.31.09,0,.13.06c.36.17.77.36,1.17.58l.38.19.57.29.6.32,1.22.68h0l.12.07.13.08.48.28.74.45c.27.16.54.35.82.53l.28.17.15.11c1.12.73,2.27,1.56,3.42,2.48a.74.74,0,0,0,.2.16,0,0,0,0,0,0,0l.61.51h0c.23.2.47.39.7.6.48.42.95.86,1.43,1.3l0,0a.38.38,0,0,0,.09.09l.56.53.54.54.25.27.28.28.58.64c.15.17.31.33.46.52a3.47,3.47,0,0,1,.25.29,2.25,2.25,0,0,0,.21.24l0,0h0l.11.15.14.14.23.28.06.07.06.07h0l0,0c.14.17.29.35.42.53l.39.51a5.61,5.61,0,0,1,.38.51.09.09,0,0,1,0,0c.21.26.39.53.56.78s.36.49.53.75a24.87,24.87,0,0,1,1.42,2.25l.16.26c.1.18.2.36.29.54a16,16,0,0,1,.75,1.49,13.23,13.23,0,0,1,.49,1.24,9.68,9.68,0,0,1,.38,1.35c0,.15.05.29.07.43a3.65,3.65,0,0,1,.07.46v0a5.28,5.28,0,0,1,0,1.34,2.11,2.11,0,0,1-.09.36,2.69,2.69,0,0,1-.66,1.18,2.57,2.57,0,0,1-.53.45h0a5.79,5.79,0,0,1-3.8.61A16.33,16.33,0,0,1,477,386l-.22-.07-.21-.06-.86-.27-.69-.23-.67-.23-.53-.18-1.1-.45-1.24-.51c-.39-.16-.79-.35-1.19-.54l-.8-.36a10.12,10.12,0,0,1-.93-.47l-.22-.1-1.58-.85c-.85-.45-1.68-.93-2.51-1.45q-.57-.34-1.14-.72c-.2-.14-.42-.27-.62-.42a2.43,2.43,0,0,1-.28-.2l-.77-.53-.8-.59,0,0a.31.31,0,0,1-.12-.09c-.62-.48-1.26-1-1.85-1.49,0,0,0,0,0,0l-.15-.13c-.33-.29-.65-.56-1-.88s-.43-.38-.63-.6-.21-.19-.31-.3-.22-.22-.32-.33a1.41,1.41,0,0,1-.24-.25,2.49,2.49,0,0,1-.23-.23c-.16-.17-.33-.34-.47-.5h0a.7.7,0,0,1-.06-.09l0,0a1.31,1.31,0,0,0-.11-.12l-.05-.05c-.16-.17-.3-.36-.45-.53a7.14,7.14,0,0,1-.5-.62.65.65,0,0,1-.12-.15c-.27-.33-.52-.67-.76-1-.13-.17-.24-.35-.35-.52s-.11-.17-.17-.26l-.29-.46c-.09-.13-.17-.27-.25-.41l-.07-.14a2.52,2.52,0,0,1-.24-.42l0-.08c-.13-.22-.25-.44-.36-.67s-.16-.34-.23-.5l-.13-.27c0-.08-.06-.16-.09-.23-.12-.27-.22-.53-.32-.79s-.11-.28-.15-.42-.14-.43-.2-.64l-.06-.21C449.41,361.33,450,359.48,451.19,358.36Zm-108.57-6.68H259.79V286.17s24.53,0,42.11.85c1.55.09,3,.16,4.46.26,5.69.35,10.16.83,12,1.46,1.47.48,4.1,2.46,7.37,5.38,1.47,1.33,3.09,2.85,4.8,4.5.42.39.81.78,1.27,1.2l3.11,3.12c3.58,3.58,7.36,7.51,11,11.33v0c.52.53,1,1.07,1.52,1.59,9.11,9.73,16.76,18.33,16.76,18.33l-.15.12.13.14-1.5,1.21a13,13,0,0,1,4.61,1.58,13.53,13.53,0,0,1,1.15.78,9.92,9.92,0,0,1,.89.78l.35.35.42.49a8.81,8.81,0,0,1,.69,1h0c.15.24.27.48.4.71a4.15,4.15,0,0,1,.3.65,7.72,7.72,0,0,1,.29.77c0,.08.05.16.07.24s.08.28.11.4,0,.14,0,.2,0,.08,0,.11l0,.15a6.13,6.13,0,0,1,0,.62c0,.11,0,.21,0,.31s-.05.39-.08.58,0,.19,0,.28l-.12.56c-.06.23-.13.48-.2.7a9.1,9.1,0,0,1-.85,1.84c-.17.27-.36.53-.56.79h0a6.13,6.13,0,0,1-.65.7,12.54,12.54,0,0,1-5.8,3.07c-.28.08-.54.14-.82.2-.49.11-1,.19-1.47.27l-.62.09-.57.07-.39,0a31.51,31.51,0,0,1-5.18.06l-.33,0-.22,0a4.13,4.13,0,0,1-.47,0h-.13a2.45,2.45,0,0,1-.37-.34c-2.28-2.17-2.63-5.4-2.26-8.52h0l-.39.3-4.9,3.89,0,0-1.31,1Zm-84.1,5.06H284v3.84h-25.5Zm-45.86,0h25.47v3.82H212.66Zm-54.77-51.43c11.48-21.66,22.92-19.14,22.92-19.14h68.8v65.51H151.53S146.44,326.94,157.89,305.31Z" transform="translate(-69.99 -106.57)"></path><rect class="cls-5" x="142.67" y="250.17" width="25.46" height="3.82"></rect><path class="cls-5" d="M450.27,364.36l.06.21c.06.21.13.43.2.64s.1.28.15.42.2.52.32.79c0,.07.05.15.09.23l.13.27c.07.16.14.34.23.5s.23.45.36.67l0,.08.24.42.07.14c.08.14.16.28.25.41l.13.2a2.26,2.26,0,0,1,.16.26c.06.09.11.18.17.26s.22.35.35.52c.24.33.49.67.76,1a.65.65,0,0,0,.12.15c.17.21.33.42.5.62s.29.36.45.53l.05.05a1.31,1.31,0,0,1,.11.12l0,0a.7.7,0,0,0,.06.09h0c.14.16.31.33.47.5a2.49,2.49,0,0,0,.23.23,1.41,1.41,0,0,0,.24.25c.1.11.21.23.32.33s.21.21.31.3.42.41.63.6.65.59,1,.88l.15.13s0,0,0,0c.59.52,1.23,1,1.85,1.49a.31.31,0,0,0,.12.09l0,0,0,0,.76.57.77.53a2.43,2.43,0,0,0,.28.2c.2.15.42.28.62.42q.57.38,1.14.72c.83.51,1.67,1,2.51,1.45l1.58.85.22.1.93.47.8.36c.4.19.8.38,1.19.54l1.24.51,1.1.45.53.18.67.23.69.23.86.27.21.06.22.07a16.33,16.33,0,0,0,2.92.58,5.79,5.79,0,0,0,3.8-.61h0a2.57,2.57,0,0,0,.53-.45,2.69,2.69,0,0,0,.66-1.18A2.11,2.11,0,0,0,485,384a5.28,5.28,0,0,0,0-1.34v0a3.67,3.67,0,0,0-.09-.43,3.31,3.31,0,0,0-.15-.72,3.59,3.59,0,0,0-.13-.52,4.93,4.93,0,0,0-.29-.87c0-.11-.08-.23-.12-.36s-.12-.23-.18-.35a2.2,2.2,0,0,1-.09-.21c-.06-.12-.12-.27-.17-.4s-.19-.4-.28-.59c-.37-.69-.78-1.4-1.24-2.14-.27-.47-.56-.95-.89-1.43-.17-.26-.34-.5-.53-.75s-.35-.52-.56-.78a.09.09,0,0,0,0,0,5.61,5.61,0,0,0-.38-.51l-.4-.51-.39-.49,0,0,0,0h0l-.07-.06,0-.05,0,0-.08-.05-.29-.37-.11-.15h0l0,0a2.25,2.25,0,0,1-.21-.24,3.47,3.47,0,0,0-.25-.29c-.15-.19-.31-.35-.46-.52L477,369l-.28-.28-.79-.81-.56-.53a.38.38,0,0,1-.09-.09l0,0-.44-.39c-.39-.37-.81-.74-1.22-1.09l-.47-.42h0l-.61-.51a0,0,0,0,1,0,0,.74.74,0,0,1-.2-.16,4,4,0,0,1-.41-.31l-.39-.3-.6-.45c-.16-.11-.33-.23-.48-.35l-.22-.16-.26-.17-.22-.16-.47-.33-.24-.16a.6.6,0,0,0-.13-.09l-.15-.11-.28-.17c-.28-.18-.55-.37-.82-.53l-.81-.49-.41-.24-.13-.08-.12-.07h0l-.41-.22c-.36-.19-.68-.39-1-.54s-.67-.36-1-.53l-.38-.19c-.36-.18-.7-.35-1.05-.49l-.12-.09-.13-.06-.09,0-.68-.31-.1,0-.08,0-.29-.13h0l-.67-.29-.17-.06-.36-.14h0l-.33-.13-.24-.08a2.47,2.47,0,0,0-.46-.15h0a10.76,10.76,0,0,0-1.1-.23l-.58-.05c-.26,0-.53,0-.79,0a7.81,7.81,0,0,0-4.65,1.49,1.29,1.29,0,0,0-.21.19C450,359.48,449.41,361.33,450.27,364.36Z" transform="translate(-69.99 -106.57)"></path><polygon class="cls-5" points="188.53 253.99 188.53 254 214.03 254 214.03 250.17 214.02 250.17 214.02 253.99 188.53 253.99"></polygon><rect class="cls-13" x="142.67" y="250.17" width="25.47" height="3.82"></rect><rect class="cls-13" x="188.53" y="250.17" width="25.49" height="3.82"></rect><path class="cls-14" d="M450.27,364.36l.06.21c.06.21.13.43.2.64s.1.28.15.42.2.52.32.79c0,.07.05.15.09.23l.13.27c.07.16.14.34.23.5s.23.45.36.67l0,.08.24.42.07.14c.08.14.16.28.25.41l.29.46c.06.09.11.18.17.26s.22.35.35.52c.24.33.49.67.76,1a.65.65,0,0,0,.12.15c.17.21.33.42.5.62s.29.36.45.53l.05.05a1.31,1.31,0,0,1,.11.12l0,0,.07.09c.14.16.31.33.47.5a2.49,2.49,0,0,0,.23.23,1.41,1.41,0,0,0,.24.25c.1.11.21.23.32.33s.21.21.31.3.42.41.63.6.65.59,1,.88l.15.13s0,0,0,0c.59.52,1.23,1,1.85,1.49a.31.31,0,0,0,.12.09l0,0,.8.59.77.53a2.43,2.43,0,0,0,.28.2c.2.15.42.28.62.42q.57.38,1.14.72c.83.51,1.67,1,2.51,1.45l1.58.85.22.1.93.47.8.36c.4.19.8.38,1.19.54l1.24.51,1.63.63.67.23.69.23.86.27.21.06.21.06a17.66,17.66,0,0,0,2.93.59,5.79,5.79,0,0,0,3.8-.61h0a2.57,2.57,0,0,0,.53-.45,2.69,2.69,0,0,0,.66-1.18A2.11,2.11,0,0,0,485,384a5.28,5.28,0,0,0,0-1.34v0a3.65,3.65,0,0,0-.07-.46c0-.14,0-.28-.07-.43a9.68,9.68,0,0,0-.38-1.35,13.23,13.23,0,0,0-.49-1.24,16,16,0,0,0-.75-1.49c-.09-.18-.19-.36-.29-.54l-.16-.26a24.87,24.87,0,0,0-1.42-2.25c-.17-.26-.34-.5-.53-.75s-.35-.52-.56-.78a.09.09,0,0,0,0,0,5.61,5.61,0,0,0-.38-.51l-.39-.51c-.13-.18-.28-.36-.42-.53l0,0h0l-.06-.07-.06-.07-.23-.28-.14-.14-.11-.15h0l0,0a2.25,2.25,0,0,1-.21-.24,3.47,3.47,0,0,0-.25-.29c-.15-.19-.31-.35-.46-.52L477,369l-.28-.28-.25-.27-.54-.54-.56-.53a.38.38,0,0,1-.09-.09l0,0c-.48-.44-1-.88-1.43-1.3-.23-.21-.47-.4-.7-.6h0l-.61-.51a0,0,0,0,1,0,0,.74.74,0,0,1-.2-.16,4,4,0,0,1-.41-.31l-.39-.3-.6-.45c-.16-.11-.33-.23-.48-.35l-.22-.16-.26-.17-.22-.16-.47-.33-.24-.16a.6.6,0,0,0-.13-.09l-.15-.11-.28-.17c-.28-.18-.55-.37-.82-.53l-.81-.49-.41-.24-.13-.08-.12-.07h0l-1.22-.68-.6-.32-.57-.29-.38-.19c-.4-.22-.81-.41-1.17-.58l-.13-.06-.09,0-.68-.31-.18-.07-.29-.13h0l-.67-.29-.17-.06-.36-.14h0a3,3,0,0,0-.33-.14l-.24-.07a2.47,2.47,0,0,0-.46-.15h0a10.76,10.76,0,0,0-1.1-.23l-.58-.05c-.26,0-.53,0-.79,0a7.81,7.81,0,0,0-4.65,1.49,1.29,1.29,0,0,0-.21.19C450,359.48,449.41,361.33,450.27,364.36Z" transform="translate(-69.99 -106.57)"></path><path class="cls-15" d="M280.44,360.56v0H284v-3.84h0v3.82Z" transform="translate(-69.99 -106.57)"></path><path class="cls-5" d="M238.12,356.74v3.82h0v-3.82ZM350.86,345.1h0l0,0v0Zm2.26,8.53a2.45,2.45,0,0,0,.37.34h0A4,4,0,0,1,353.12,353.63Zm99.29,15.51.29.46a2.26,2.26,0,0,0-.16-.26Zm6.58-12,.24.08.33.13a3,3,0,0,0-.33-.14Zm1.68,20.69.8.59-.76-.57Zm3.06-18.6c.3.17.62.32,1,.53s.65.35,1,.54l.41.22-1.22-.68-.6-.32Zm2.65,1.45.41.24.81.49-.74-.45Zm-4.2-2.22.12.09c.35.14.69.31,1.05.49C463,358.8,462.54,358.61,462.18,358.44Zm10.92,6.92.47.42c.41.35.83.72,1.22,1.09l.44.39c-.48-.44-1-.88-1.43-1.3C473.57,365.75,473.33,365.56,473.1,365.36Zm2.8,2.54.79.81-.25-.27Zm3.12,3.43,0,.05.07.06-.06-.07Zm-.4-.45.29.37.08.05-.23-.28Zm.53.61,0,0,.39.49.4.51-.39-.51C479.44,371.84,479.29,371.66,479.15,371.49Zm2.31,3.13c.33.48.62,1,.89,1.43.19.27.37.54.53.82A24.87,24.87,0,0,0,481.46,374.62Zm1.87,3.05c.09.17.17.35.26.52s.18.39.28.59a5.1,5.1,0,0,1,.26.58c.07.13.13.26.18.38s.09.25.12.36a4.93,4.93,0,0,1,.29.87,3.59,3.59,0,0,1,.13.52,3.31,3.31,0,0,1,.15.72,3.67,3.67,0,0,1,.09.43,3.65,3.65,0,0,0-.07-.46c0-.14,0-.28-.07-.43a9.68,9.68,0,0,0-.38-1.35,13.23,13.23,0,0,0-.49-1.24A16,16,0,0,0,483.33,377.67Z" transform="translate(-69.99 -106.57)"></path><path class="cls-12" d="M353.12,353.63a2.45,2.45,0,0,0,.37.34h.13a4.13,4.13,0,0,0,.47,0l.22,0,.33,0a31.51,31.51,0,0,0,5.18-.06l.39,0,.57-.07.62-.09c.5-.08,1-.16,1.47-.27.28-.06.54-.12.82-.2a12.54,12.54,0,0,0,5.8-3.07c.23-.22.44-.46.65-.7h0c.2-.26.39-.52.56-.79a9.1,9.1,0,0,0,.85-1.84c.07-.22.14-.47.2-.7l.12-.56c0-.09,0-.18,0-.28s0-.38.08-.58,0-.2,0-.31,0-.4,0-.62c0,0,0-.05,0-.15s0-.07,0-.11,0-.13,0-.2-.06-.25-.11-.4,0-.16-.07-.24a7.72,7.72,0,0,0-.29-.77c-.09-.21-.19-.42-.3-.65s-.25-.47-.4-.71h0c-.21-.31-.43-.64-.69-1l-.42-.49-.35-.35a9.92,9.92,0,0,0-.89-.78,11.64,11.64,0,0,0-5.79-2.34l-.24-.05a26.35,26.35,0,0,0-8.63.36h-.06a30.31,30.31,0,0,0-1.68,4.16,28.51,28.51,0,0,0-.9,3.32c-.09.49-.18,1-.24,1.48l0,0,0,.1v0l0,0h0C350.49,348.23,350.84,351.46,353.12,353.63Z" transform="translate(-69.99 -106.57)"></path><path class="cls-13" d="M131.47,428.07a28.95,28.95,0,0,0,56.43,9.08,28.95,28.95,0,1,0-56.43-9.08Z" transform="translate(-69.99 -106.57)"></path><path class="cls-13" d="M405.32,428.07a28.95,28.95,0,1,0,28.95-28.95A28.69,28.69,0,0,0,405.32,428.07Z" transform="translate(-69.99 -106.57)"></path><circle class="cls-3" cx="270.47" cy="200.49" r="22.1" transform="translate(-69.98 294.43) rotate(-73.1)"></circle><path class="cls-4" d="M261.53,218.66a20.25,20.25,0,1,1,27.11-9.23A20.27,20.27,0,0,1,261.53,218.66Z" transform="translate(-69.99 -106.57)"></path><path class="cls-5" d="M263.57,214.51a15.62,15.62,0,1,1,20.92-7.12A15.64,15.64,0,0,1,263.57,214.51Z" transform="translate(-69.99 -106.57)"></path><g class="cls-6"><rect class="cls-7" x="193.59" y="91.37" width="8.77" height="2.08"></rect><rect class="cls-7" x="193.59" y="95.05" width="8.77" height="2.08"></rect><path class="cls-7" d="M275.05,206.37a4.72,4.72,0,0,1-2.09.42,4.9,4.9,0,0,1-3.89-1.61,6,6,0,0,1-1.64-4.29,6.2,6.2,0,0,1,1.64-4.36,4.8,4.8,0,0,1,3.88-1.65,5.38,5.38,0,0,1,1.88.34l.93-2.05a6.21,6.21,0,0,0-2.65-.6A7.25,7.25,0,0,0,267,195.4a8.54,8.54,0,0,0-1.95,5.51,8.24,8.24,0,0,0,2.33,5.89,7.16,7.16,0,0,0,5.52,2.27,7.93,7.93,0,0,0,3.07-.61l-.49-2.32A3.94,3.94,0,0,1,275.05,206.37Z" transform="translate(-69.99 -106.57)"></path></g><rect class="cls-5" x="186.09" y="33.73" width="1.72" height="35.49"></rect><rect class="cls-5" x="199.61" width="1.72" height="69.22"></rect><rect class="cls-5" x="213.14" y="33.73" width="1.72" height="35.49"></rect><path class="cls-16" d="M666.23,444.81a1.9,1.9,0,0,1-.56,1,2.09,2.09,0,0,1-1.37.48c-.42,0-1.79,0-4.49-3.69a13.58,13.58,0,0,1-1.81-3.24,5.38,5.38,0,0,1-.29-1,.09.09,0,0,1,0-.06,4.68,4.68,0,0,1-.14-1.7L657,427v0l-.2-3.18,0-.68h4.46a4.72,4.72,0,0,1,0,.68c0,.88,0,2,.08,3.18.2,4.8.48,11,.77,11,.11,0,.42.54.82,1.34s.74,1.59,1.14,2.5a6,6,0,0,0,.45,1.08,6.64,6.64,0,0,0,.69,1A6.49,6.49,0,0,0,666.23,444.81Z" transform="translate(-69.99 -106.57)"></path><path class="cls-12" d="M665.05,448.74c-3.16.42-5.43-2.7-6.76-5.86a8.14,8.14,0,0,1-.83-3.52,2.37,2.37,0,0,1,.23-1,.06.06,0,0,0,0,.05,3.5,3.5,0,0,0,.68,1,23.81,23.81,0,0,0,3.49,3.07c3,2.21,2.87,1.7,3.27,1.48a.53.53,0,0,1,.34-.12C666.38,443.79,668.2,448.28,665.05,448.74Z" transform="translate(-69.99 -106.57)"></path><path class="cls-16" d="M656,423.11l-.06.68-.2,3.18v0l-.59,9.63a4.68,4.68,0,0,1-.14,1.7.09.09,0,0,1,0,.06,6.33,6.33,0,0,1-.29,1,13.32,13.32,0,0,1-1.82,3.24c-2.69,3.69-4.06,3.69-4.48,3.69a2.09,2.09,0,0,1-1.37-.48,1.93,1.93,0,0,1-.57-1,6.13,6.13,0,0,0,1.08-.91,6.64,6.64,0,0,0,.69-1,6.82,6.82,0,0,0,.45-1.08c.4-.91.8-1.82,1.14-2.5s.71-1.34.82-1.34c.28,0,.57-6.25.74-11,0-1.19.08-2.3.11-3.18a4.72,4.72,0,0,1,0-.68Z" transform="translate(-69.99 -106.57)"></path><path class="cls-12" d="M647.63,448.74c3.15.42,5.42-2.7,6.76-5.86a8.09,8.09,0,0,0,.82-3.52,2.48,2.48,0,0,0-.22-1,.06.06,0,0,1,0,.05,4.06,4.06,0,0,1-.68,1,23.5,23.5,0,0,1-3.5,3.07c-2.95,2.21-2.87,1.7-3.27,1.48a.51.51,0,0,0-.34-.12C646.29,443.79,644.47,448.28,647.63,448.74Z" transform="translate(-69.99 -106.57)"></path><path class="cls-12" d="M663.85,287.46c0-1.36-.46-5.57-.77-8.1a3.71,3.71,0,0,1-1,.66,2.77,2.77,0,0,1-.46.2,1.93,1.93,0,0,1-.34.11,2.18,2.18,0,0,1-.22.06.71.71,0,0,1-.2,0,4.24,4.24,0,0,1-1.74,0,2.33,2.33,0,0,1-.51-.11.44.44,0,0,1-.17-.06,3.21,3.21,0,0,1-.57-.22,3.86,3.86,0,0,1-.56-.32c-.2-.14-.37-.25-.54-.39l-.06-.06-.77,6.19-6,2c-3,1,1,10.08,8.92,9.09s7.92-6.05,7.92-6.05S663.85,289.48,663.85,287.46Z" transform="translate(-69.99 -106.57)"></path><path class="cls-12" d="M671.49,296.27a8,8,0,0,0,.6-.6,17.42,17.42,0,0,0,4.74-13.58c-.91-8.72-5.85-11.48-5.85-11.48s1.33-11.93-9.92-12.38c0,0-10.36,0-10.82,7.78v6s-5.85,1.84-6.31,6,.88,6.88.88,8.24a5.17,5.17,0,0,1-.82,2.24,7.63,7.63,0,0,1-5.48,3.73,14.24,14.24,0,0,0-4.4,1.67,29.34,29.34,0,0,0-2.87,1.76,2.51,2.51,0,0,0-.29.2c-4.91,3.47-9.94,9.12-9.12,15.65,1.37,10.49,10.23,19.18,24.49,12.08a2.12,2.12,0,0,0,.31-.14,39.83,39.83,0,0,0,18.92-20.2l6.68-7.25.54-.56-.6.42Zm-4.63-26v.15a29.48,29.48,0,0,1-.68,3.69.6.6,0,0,0-.06.23,13.63,13.63,0,0,1-2,4.09c-.15.17-.29.34-.43.48s-.31.28-.48.43-.06.05-.09.05c.31,2.53.77,6.74.77,8.1,0,2,2.95,3,2.95,3s0,5-7.92,6.05S647,288.48,650,287.46l6-2,.77-6.19a2.83,2.83,0,0,1-.31-.26,12.66,12.66,0,0,1-2.73-5.34,24.65,24.65,0,0,1-.57-3.26v-.15c-.06-.45-.08-.91-.11-1.33h14C666.94,269.33,666.92,269.79,666.86,270.24Z" transform="translate(-69.99 -106.57)"></path><path class="cls-17" d="M658.59,280.3a2.33,2.33,0,0,0,.51.11.94.94,0,0,1-.22,0A.82.82,0,0,1,658.59,280.3Z" transform="translate(-69.99 -106.57)"></path><path class="cls-16" d="M667,268.91c0,.42-.05.88-.11,1.33v.15a29.48,29.48,0,0,1-.68,3.69.6.6,0,0,0-.06.23,13.63,13.63,0,0,1-2,4.09c-.15.17-.29.34-.43.48s-.31.28-.48.43-.06.05-.09.05a3.71,3.71,0,0,1-1,.66,2.77,2.77,0,0,1-.46.2,1.93,1.93,0,0,1-.34.11,2.18,2.18,0,0,1-.22.06.71.71,0,0,1-.2,0,4.24,4.24,0,0,1-1.74,0,2.33,2.33,0,0,1-.51-.11.44.44,0,0,1-.17-.06,3.21,3.21,0,0,1-.57-.22,3.86,3.86,0,0,1-.56-.32c-.2-.14-.37-.25-.54-.39l-.06-.06a2.83,2.83,0,0,1-.31-.26,12.66,12.66,0,0,1-2.73-5.34,24.65,24.65,0,0,1-.57-3.26v-.15c-.06-.45-.08-.91-.11-1.33Z" transform="translate(-69.99 -106.57)"></path><path class="cls-17" d="M660.84,280.41l.42-.08a2.18,2.18,0,0,1-.22.06A.71.71,0,0,1,660.84,280.41Z" transform="translate(-69.99 -106.57)"></path><path class="cls-16" d="M666.8,290.5s0,5-7.92,6.05S647,288.48,650,287.46l6-2,.77-6.19.23-1.88h5.93s.12.83.23,2c.31,2.53.77,6.74.77,8.1C663.85,289.48,666.8,290.5,666.8,290.5Z" transform="translate(-69.99 -106.57)"></path><path class="cls-16" d="M667.81,313.08s1,11.1,3,15.13,4,18.17,6,22.21-1,7.06,0,9.08,1-2,2,1-1,9.08,1,5,2-9.08,0-19.17-6-33.3-6-33.3Z" transform="translate(-69.99 -106.57)"></path><path class="cls-10" d="M674.73,313.86h-.83l-6-.05h-.08c-.23,2.4-.38,5-.42,7.77,0,3.11.09,6,.3,8.68,0,.9,0,1.81,0,2.72,0,0-1.08,0-5.26.37-1.34.12-3,.29-5.11.51-.17,0-.37,0-.54.06-1.2.11-2.28.17-3.27.17-6.39,0-8.61-2.27-8.61-2.27s0-.25.07-.37l.07-.37a40.23,40.23,0,0,0,.49-8.3c-.16-3.26-.37-12.37-.74-24.77-3.72-.62-7.42-1.25-11.14-1.9h-.14l-2.27-.4a.08.08,0,0,1,0-.08c.42-2,.88-3.87,1.3-5.83v0c.4,0,.8,0,1.17,0h0c2.67-.2,4.83-.43,6.42-.66s2.75-.39,3.83-.59c.29,0,.57-.09.88-.14,3.67-.69,3.78-1,4.46-.72a.45.45,0,0,1,.2.12c2.19,1.08,1.14,5.14,4.23,7.07a7.59,7.59,0,0,0,4.15,1.08c7.5,0,8.44-4.15,8.52-5.54a3.9,3.9,0,0,0,0-.42s1.48-.34,4.43,3.72a11.73,11.73,0,0,1,1.2,2,.7.7,0,0,1,.08.14c0,.06.06.09.06.15,1.28,3,.79,5.56,1.56,8.8A45,45,0,0,1,674.73,313.86Z" transform="translate(-69.99 -106.57)"></path><path class="cls-16" d="M632.54,289.8c-.42,2-.88,3.87-1.3,5.83a1.6,1.6,0,0,0-.29.19c-.88-.14-1.76-.28-2.7-.48a48.18,48.18,0,0,1-4.74-1.25s-2.78-15.25-3.47-20a2.24,2.24,0,0,1,0-.31,1.77,1.77,0,0,0-.06-.37c-.51-2.93-2-11-3.3-15.26,0,0,0-1.27.94.6.91,1.71,1.93,4,2.1,4.35-.08-.6-1-5.29-1.39-6.82s1.88,1.62,2.59,5.62c-.17-1.27-.66-5-.68-6.53,0-1.19,1.56,1.65,2.15,6.65a59.59,59.59,0,0,1,.09-6.17c.14-1.28,1.31-1.7,1.33,6a4.42,4.42,0,0,0,.32,2.33,3.88,3.88,0,0,1,2.18-2.59s.6.26.09,1.05a4.4,4.4,0,0,0-.77,2,5.24,5.24,0,0,0-.05,1.5c.17,1.57.59,2.45-.57,3.92a0,0,0,0,0,0,0c-.48.46-.74.51-.82.88a12,12,0,0,0,.17,3.13c.42,4.2,3.77,16,3.77,16C629.56,290,631,289.92,632.54,289.8Z" transform="translate(-69.99 -106.57)"></path><path class="cls-18" d="M672.63,353.42c-.2,3.58-5.77,43.87-10,63.24-.29,1.33-.57,2.58-.85,3.69-.17.8-.37,1.54-.57,2.19v.57h-9.69v-.57c-.17-.65-.37-1.39-.57-2.19-.31-1.28-.62-2.5-.91-3.69-3.89-16.56-4.12-24.91-8-48.41-1.5-9-2-10.68-1.93-14.83a57,57,0,0,1,5-22.35,41.06,41.06,0,0,0,9.41,2.18,10.87,10.87,0,0,0,3.83,0,41.51,41.51,0,0,0,9.43-2.18S673.62,336.86,672.63,353.42Z" transform="translate(-69.99 -106.57)"></path><path class="cls-2" d="M634.35,225.37H544s-6.19-9.9-6.19-29.71S544,163.48,544,163.48h90.37A94.22,94.22,0,0,1,639.3,193c0,16.25-4.95,32.34-4.95,32.34Z" transform="translate(-69.99 -106.57)"></path><rect class="cls-2" x="515.77" y="116.55" width="5.59" height="225.65"></rect><rect class="cls-18" x="475.23" y="60.61" width="86.65" height="54.47"></rect><text class="cls-19" transform="translate(483 91.18)">1 passager</text></g></svg> 